<svg xmlns="http://www.w3.org/2000/svg" width="256" height="256"><path fill="#1976D2" fill-opacity=".016" fill-rule="evenodd" d="M0 128.004v128.004l128.25-.254 128.25-.254.254-127.75L257.008 0H0v128.004m.485.496c0 70.4.119 99.053.265 63.672.146-35.38.146-92.98 0-128C.604 29.153.485 58.1.485 128.5"/><path fill="#1976D2" fill-opacity=".199" fill-rule="evenodd" d="M50.5 11.714c-13.6 1.88-31.793 9.155-43.595 17.434-5.773 4.049-7.651 6.516-4.155 5.457 9.779-2.963 25.1-3.436 35.082-1.083 12.95 3.053 25.358 10.409 32.306 19.152 2.625 3.302 2.86 4.274 2.838 11.714l-.024 8.112-7.726 5.467C50.436 88.432-.048 126.285.309 126.642c.197.198 5.209 1.234 11.138 2.303 23.845 4.3 43.842 18.545 57.22 40.763l3.381 5.614-.274 15.994-.274 15.994-8 2.169c-16.362 4.436-32.029 12.825-43.495 23.29-3.853 3.516-7.005 6.741-7.005 7.165 0 .425 4.612-.282 10.25-1.571 32.587-7.452 65.066-6.88 99.554 1.752l12.396 3.103 6.211-4.359c23.019-16.153 34.509-24.426 34.526-24.859.01-.275-.763-1.516-1.719-2.757l-1.737-2.257-8.863 6.456-8.864 6.457-8.127-4.091c-4.47-2.25-10.377-4.858-13.127-5.795l-5-1.703-.261-40.677-.261-40.677 2.761.617c33.71 7.532 38.981 14.309 42.256 54.331 2 24.429 5.147 34.137 14.159 43.666 5.434 5.745 18.905 15.43 21.463 15.43 1.204 0 41.905-29.51 46.232-33.519 1.127-1.045 1.062-1.688-.398-3.916-.961-1.466-2.346-2.436-3.078-2.155-.733.282-4.644 3.004-8.691 6.051-4.048 3.046-7.956 5.539-8.683 5.539-2.414 0-10.689-5.979-15.899-11.488-8.118-8.584-10.328-15.785-11.661-38.012-1.269-21.154-4.467-30.329-13.939-39.999-6.124-6.252-11.161-9.743-23.813-16.504l-9.768-5.218 8.791-6.399c4.834-3.52 12.704-9.208 17.487-12.64 4.783-3.432 8.72-6.575 8.75-6.984.029-.409-3.209-5.141-7.197-10.517A2867.002 2867.002 0 0 1 172 47.131C154.333 22.786 149.964 17 149.253 17.008c-.414.004-10.595 7.225-22.624 16.045-12.029 8.821-22.03 15.88-22.223 15.686-.194-.193-1.035-3.599-1.87-7.567-1.962-9.329-4.421-14.021-9.854-18.803C82.538 13.44 66.792 9.463 50.5 11.714m81.68 27.385L128 42.173v37.914c0 20.852.243 37.913.539 37.913.394 0 41.966-30.55 44.304-32.558.188-.162-7.867-11.24-17.902-24.618a35758.224 35758.224 0 0 1-18.413-24.561c-.093-.131-2.05 1.146-4.348 2.836M113 52.846l-7.5 5.732-.262 38.765-.262 38.765 8.012-6.099L121 123.91V85.455c0-21.15-.112-38.429-.25-38.398-.138.031-3.625 2.636-7.75 5.789M67 86.227c-3.025 2.307-6.083 4.763-6.795 5.458-.713.694-5.1 4.027-9.75 7.405-4.65 3.379-8.455 6.309-8.455 6.512 0 .203 2.813 1.787 6.25 3.52 7.13 3.595 16.204 9.582 21.284 14.042L73 126.207v-22.103c0-12.157-.112-22.097-.25-22.088-.138.009-2.725 1.904-5.75 4.211m45.699 51.481L105 143.415v62.3l5.75.635c3.162.349 6.763.916 8 1.259l2.25.624v-38.116c0-20.965-.136-38.117-.301-38.117-.166 0-3.766 2.568-8 5.708"/><path fill="#1976D2" fill-opacity=".323" fill-rule="evenodd" d="M43 13.53c-11.422 2.637-24.223 8.192-34.321 14.895-6.527 4.332-8.199 6.232-4.585 5.209 1.323-.375 6.011-1.114 10.416-1.641 20.181-2.418 41.042 4.473 53.572 17.697L73 54.88v17.991l-10.75 7.775C38.027 98.165.859 126.193 1.285 126.619c.251.251 2.652.704 5.336 1.006 24.66 2.779 48.316 18.469 61.678 40.908l4.745 7.967-.272 15.5-.272 15.5-8 2.1c-8.4 2.206-19.91 6.897-27.5 11.209C29.144 225.272 10.96 240 13.306 240c.339 0 4.436-.891 9.104-1.979 33.339-7.774 72.871-6.623 105.855 3.082l6.765 1.991 19.974-14.297c10.985-7.863 19.979-14.804 19.985-15.425.006-.62-.648-1.674-1.454-2.343-1.201-.997-3.015-.097-10.074 4.999l-8.609 6.215-10.676-5.054c-5.872-2.779-11.914-5.358-13.426-5.73l-2.75-.676v-40.891c0-33.512.242-40.892 1.34-40.892.737 0 4.859.9 9.16 2 14.38 3.678 22.625 8.652 27.578 16.638 3.185 5.134 5.893 17.915 6.961 32.843 1.229 17.204 3.847 30.387 7.443 37.483 3.366 6.643 10.72 14.01 20.405 20.441 6.619 4.396 7.606 4.77 9.5 3.604 6.47-3.986 44.613-33.221 44.613-34.195 0-.636-.73-1.963-1.623-2.949-1.545-1.708-1.891-1.589-7.25 2.479-3.095 2.35-7.094 5.293-8.887 6.54l-3.26 2.267-3.74-2.248c-6.313-3.794-13.888-10.657-17.078-15.472-3.974-6-6.005-15.305-7.148-32.754-1.447-22.083-4.601-30.967-14.354-40.428-6.316-6.128-12.559-10.366-23.935-16.249-4.786-2.475-8.707-4.773-8.713-5.106-.011-.574 25.266-19.45 31.312-23.384 1.681-1.093 2.655-2.483 2.406-3.433-.328-1.258-39.803-56.127-42.724-59.387-.4-.446-10.802 6.599-23.116 15.655-14.114 10.379-22.626 16.038-23.027 15.31-.351-.635-.967-3.18-1.37-5.655-.402-2.475-1.573-6.762-2.6-9.526-3.323-8.936-14.564-17.777-25.935-20.398-6-1.383-24.156-1.116-30.958.454m88.25 25.688L127 42.357v38.405c0 25.063.346 38.289.996 38.071 2.723-.911 45.061-33.237 44.803-34.208-.429-1.612-35.92-48.633-36.673-48.585-.344.021-2.538 1.452-4.876 3.178m-18.347 13.278-7.583 5.495-.658 24.755c-.868 32.679-.812 50.469.165 52.008.576.908 3.059-.434 8.985-4.854l8.188-6.109V85.396c0-21.118-.341-38.396-.758-38.396-.416 0-4.169 2.473-8.339 5.496M67.378 85.678c-2.818 2.102-9.942 7.51-15.833 12.018l-10.71 8.196 6.958 3.504c8.414 4.237 15.342 8.758 20.707 13.512l4 3.545.283-11.227c.155-6.174.155-16.208 0-22.298L72.5 81.857l-5.122 3.821m45.005 51.616-7.116 5.206-.751 30.021c-.413 16.511-.579 30.911-.369 32 .274 1.421 1.224 2.001 3.367 2.058 1.642.043 5.348.423 8.236.844l5.25.765v-38.094c0-20.952-.338-38.074-.75-38.05-.412.023-3.952 2.386-7.867 5.25"/><path fill="#1976D2" fill-opacity=".486" fill-rule="evenodd" d="M49.5 12.658C36.428 14.789 14.085 24.114 6.427 30.635L3.5 33.128l3-.639c7.744-1.647 23.366-1.68 30.471-.064 13.971 3.178 26.937 10.645 33.573 19.336C73.834 56.07 74 56.681 74 64.451v8.164l-8.182 5.943c-4.499 3.268-18.787 13.833-31.75 23.477-12.962 9.644-25.471 18.869-27.797 20.5-2.325 1.631-4.238 3.244-4.25 3.586-.011.341 2.753.935 6.143 1.318 13.309 1.506 28.928 8.352 41.058 17.997 6.639 5.279 15.263 15.413 20.275 23.826L73 175.143v32.78l-4.25 1.063c-15.99 4.002-30.268 10.534-41.661 19.061-6.586 4.929-15.749 13.49-12.402 11.588 2.122-1.206 20.529-4.747 32.275-6.209 24.308-3.024 53.488-.576 79.87 6.702 4.033 1.113 7.998 1.767 8.811 1.455.813-.312 10.024-6.685 20.468-14.162 15.602-11.171 18.78-13.848 17.817-15.008-.645-.777-1.565-1.413-2.045-1.413-.479 0-4.501 2.691-8.937 5.98l-8.065 5.98-8.691-4.339c-4.779-2.387-11.057-5.115-13.951-6.064l-5.261-1.725.261-41.166.261-41.166 3.318.323c4.41.429 18.077 4.556 22.308 6.735 8.405 4.33 13.937 10.677 16.38 18.796 1.478 4.909 3.942 22.297 4.97 35.065 1.506 18.701 5.15 29.031 13.358 37.872 4.745 5.111 18.307 14.709 20.783 14.709.748 0 3.953-1.932 7.122-4.294 3.168-2.361 13.299-9.888 22.511-16.726 9.213-6.839 16.736-12.669 16.718-12.957-.017-.288-.676-1.375-1.464-2.415-1.366-1.805-1.828-1.606-9.887 4.25-4.65 3.378-9.06 6.142-9.799 6.142-2.116 0-11.026-6.366-16.319-11.659-7.982-7.982-10.644-16.482-12.006-38.341-1.428-22.906-4.559-31.129-15.877-41.698-5.106-4.768-10.941-8.821-18.993-13.192-6.393-3.471-11.61-6.827-11.594-7.46.016-.632 2.829-3.16 6.25-5.617 20.931-15.03 27.652-20.343 27.054-21.387-.621-1.083-13.658-19.046-33.673-46.396-4.931-6.738-9.234-12.246-9.563-12.242-.328.004-10.411 7.204-22.406 16S104.509 50 104.054 50c-.455 0-1.38-3.038-2.056-6.75-1.436-7.889-4.197-14.746-7.297-18.123-3.213-3.501-11.457-8.555-17.201-10.545-5.011-1.736-21.995-2.903-28-1.924m82.176 25.863L127 42.092v38.954c0 21.425.187 38.954.416 38.954.411 0 44.282-32.493 45.951-34.033.635-.587-31.07-44.451-36.314-50.241-.386-.426-2.806.832-5.377 2.795m-12.222 8.764c-3.033 1.8-13.84 10.047-14.689 11.209-1.228 1.682-.93 77.506.305 77.506.589 0 4.639-2.581 9-5.735l7.93-5.736V85.265c0-21.596-.112-39.249-.25-39.23-.138.02-1.171.582-2.296 1.25M65.978 86.138A2395.66 2395.66 0 0 1 50.25 98.065c-5.087 3.823-9.25 7.321-9.25 7.772 0 .452 2.344 1.911 5.208 3.242 6.585 3.061 15.945 9.055 21.901 14.025 2.534 2.115 4.897 3.557 5.25 3.204.921-.921.794-44.095-.131-44.667-.425-.263-3.688 1.761-7.25 4.497m46.165 50.996L104 143.209v63.502l6.25.658c3.438.363 7.487.93 9 1.261l2.75.603v-38.557c0-21.207-.386-38.796-.857-39.087-.471-.292-4.521 2.204-9 5.545"/></svg>